#!OML:ASF X:\für Bonn\!DataBase\2005_08_10_Bjorn_Final\c3d\bjorn.ASF
:FULLY-SPECIFIED
:DEGREES
136
root -29.0477 18.279 -13.7591 -1433.69 0.685798 -9.99445
lowerback -0.4252 -2.23652 10.1586
upperback 8.75034 -3.8073 3.00957
thorax 9.18013 -1.228 -2.73586
lowerneck -1.2049 10.8843 2.7776
upperneck 0.0880144 14.6497 -10.7489
head 1.34469 7.28202 -3.60952
rclavicle -4.4006e-014 6.86801e-014
rhumerus -51.4357 0.13325 -87.1471
rradius 60.558
rwrist -9.38805
rhand -27.2568 21.2183
rfingers 7.12502
rthumb -0.668122 -8.7604
lclavicle -4.4006e-014 6.86801e-014
lhumerus -36.2068 -40.3976 100.174
lradius 93.3977
lwrist -5.48236
lhand -42.5982 -23.1893
lfingers 7.12502
lthumb -15.4714 6.2116
rfemur -31.7844 -2.55126 18.2866
rtibia 46.0996
rfoot -9.71137 24.5429
rtoes -18.7569
lfemur 1.47649 -8.06182 -14.3218
ltibia 59.1461
lfoot 4.69997 5.58275
ltoes -14.5786
137
root -29.0538 18.1812 -13.5556 -1433.99 0.94523 -10.3221
lowerback -0.319294 -2.098 10.638
upperback 8.858 -3.65305 3.15688
thorax 9.25559 -1.11576 -2.82523
lowerneck -1.41123 10.8408 2.89092
upperneck -0.0434031 14.5896 -11.0175
head 1.36778 7.24986 -3.71187
rclavicle -2.54444e-014 3.66012e-014
rhumerus -50.2031 0.0340127 -87.2196
rradius 61.5205
rwrist -9.35024
rhand -27.9454 20.787
rfingers 7.12502
rthumb -1.33319 -9.18858
lclavicle -2.54444e-014 3.66012e-014
lhumerus -37.1021 -40.0044 101.142
lradius 92.2987
lwrist -5.58969
lhand -42.0879 -23.1583
lfingers 7.12502
lthumb -14.9798 6.27988
rfemur -30.6382 -2.31027 18.5308
rtibia 46.3312
rfoot -11.8956 25.1756
rtoes -18.9318
lfemur 0.390684 -7.73382 -13.8328
ltibia 62.2286
lfoot 3.59654 6.79529
ltoes -13.8762
138
root -29.0584 18.0896 -13.3549 -1434.31 1.16723 -10.6321
lowerback -0.121602 -1.95444 11.0646
upperback 8.97803 -3.47761 3.32554
thorax 9.29893 -0.999422 -2.85733
lowerneck -1.82739 10.8274 2.89779
upperneck -0.0973995 14.5776 -11.245
head 1.44397 7.23305 -3.76527
rclavicle 4.62174e-015 3.71479e-015
rhumerus -48.8394 0.123182 -87.3726
rradius 62.399
rwrist -9.4337
rhand -28.8259 20.5631
rfingers 7.12502
rthumb -2.18357 -9.40543
lclavicle 4.62174e-015 3.71479e-015
lhumerus -37.9308 -39.3993 102.107
lradius 91.1852
lwrist -5.83385
lhand -41.6564 -23.5398
lfingers 7.12502
lthumb -14.5641 5.92887
rfemur -29.5801 -2.14127 18.7856
rtibia 46.6874
rfoot -14.0284 25.7193
rtoes -18.9924
lfemur -0.906945 -7.29346 -13.2848
ltibia 65.2979
lfoot 2.49101 7.52393
ltoes -13.2794
139
root -29.0595 17.9994 -13.1582 -1434.62 1.3467 -10.947
lowerback 0.146266 -1.79352 11.5067
upperback 9.10716 -3.26764 3.48835
thorax 9.31757 -0.865553 -2.89912
lowerneck -2.31485 10.8117 2.89733
upperneck -0.171253 14.5623 -11.4891
head 1.52718 7.21259 -3.81979
rclavicle -1.48592e-014 6.4605e-016
rhumerus -47.4839 0.284846 -87.5608
rradius 63.411
rwrist -9.72432
rhand -29.4041 20.3548
rfingers 7.12502
rthumb -2.74201 -9.60729
lclavicle -1.48592e-014 6.4605e-016
lhumerus -38.7258 -38.682 102.989
lradius 90.0458
lwrist -6.00718
lhand -41.298 -24.337
lfingers 7.12502
lthumb -14.2188 5.15635
rfemur -28.6191 -2.02243 19.0575
rtibia 47.1346
rfoot -15.7529 26.2924
rtoes -17.7636
lfemur -2.36274 -6.7567 -12.7016
ltibia 68.3055
lfoot 1.58047 7.83799
ltoes -13.8081
140
root -29.0587 17.9161 -12.9625 -1434.94 1.54574 -11.2611
lowerback 0.504165 -1.63115 11.9659
upperback 9.20458 -3.03402 3.62875
thorax 9.25118 -0.722852 -2.9703
lowerneck -2.84364 10.7948 2.93809
upperneck -0.165482 14.5515 -11.7144
head 1.64646 7.18989 -3.87086
rclavicle -2.51463e-014 -2.69353e-014
rhumerus -46.213 0.390332 -87.7791
rradius 64.508
rwrist -10.0484
rhand -29.6527 20.2659
rfingers 7.12502
rthumb -2.98206 -9.69298
lclavicle -2.51463e-014 -2.69353e-014
lhumerus -39.6668 -37.8379 103.809
lradius 88.9292
lwrist -6.26084
lhand -40.8577 -24.929
lfingers 7.12502
lthumb -13.7945 4.59369
rfemur -27.7211 -1.984 19.3543
rtibia 47.6474
rfoot -17.1603 26.8649
rtoes -15.697
lfemur -3.85503 -6.22136 -12.09
ltibia 71.1756
lfoot 1.1118 7.84174
ltoes -14.7093
141
root -29.0552 17.8342 -12.7716 -1435.29 1.72907 -11.5635
lowerback 0.978372 -1.46668 12.4036
upperback 9.22804 -2.765 3.76949
thorax 9.0398 -0.574757 -3.02604
lowerneck -3.06084 10.7609 3.0114
upperneck -0.243293 14.5091 -11.9873
head 1.68824 7.1632 -3.96738
rclavicle 2.96189e-014 5.42682e-014
rhumerus -45.0879 0.58495 -88.0583
rradius 65.6103
rwrist -10.3125
rhand -29.8595 20.5302
rfingers 7.12502
rthumb -3.18178 -9.4258
lclavicle 2.96189e-014 5.42682e-014
lhumerus -40.84 -36.8495 104.678
lradius 88.004
lwrist -6.67645
lhand -40.45 -24.9266
lfingers 7.12502
lthumb -13.4015 4.62234
rfemur -26.8922 -2.01746 19.6471
rtibia 48.2284
rfoot -18.2394 27.4336
rtoes -12.9899
lfemur -5.37623 -5.66229 -11.4741
ltibia 73.9126
lfoot 0.765503 7.57301
ltoes -15.1644
142
root -29.0513 17.7483 -12.5849 -1435.64 1.88753 -11.8657
lowerback 1.47486 -1.27823 12.8173
upperback 9.2449 -2.4537 3.91392
thorax 8.81821 -0.409158 -3.06517
lowerneck -3.17174 10.7139 3.07895
upperneck -0.3761 14.4437 -12.2645
head 1.69098 7.13034 -4.07426
rclavicle -2.78299e-015 -9.74045e-015
rhumerus -43.831 0.759621 -88.383
rradius 66.5989
rwrist -10.4283
rhand -30.0275 21.0465
rfingers 7.12502
rthumb -3.34397 -8.90698
lclavicle -2.78299e-015 -9.74045e-015
lhumerus -41.9559 -35.7836 105.464
lradius 87.206
lwrist -7.08311
lhand -39.8459 -24.4159
lfingers 7.12502
lthumb -12.8192 5.17053
rfemur -26.1267 -2.08802 19.9442
rtibia 48.8753
rfoot -18.9283 28.0047
rtoes -9.90781
lfemur -6.95221 -5.04389 -10.8211
ltibia 76.5326
lfoot 0.41954 6.88434
ltoes -14.7265
143
root -29.0459 17.662 -12.4016 -1436 2.04052 -12.1471
lowerback 2.02472 -1.0851 13.2371
upperback 9.25999 -2.11876 4.01981
thorax 8.5693 -0.231548 -3.15056
lowerneck -3.32258 10.6614 3.20402
upperneck -0.446252 14.3738 -12.5184
head 1.72378 7.09187 -4.18015
rclavicle -4.07509e-015 6.34123e-014
rhumerus -42.288 0.970518 -88.8394
rradius 67.3493
rwrist -10.2734
rhand -30.1535 21.5346
rfingers 7.12502
rthumb -3.46573 -8.41697
lclavicle -4.07509e-015 6.34123e-014
lhumerus -43.0787 -34.634 106.088
lradius 86.55
lwrist -7.43668
lhand -39.1014 -23.6878
lfingers 7.12502
lthumb -12.1014 5.94222
rfemur -25.3868 -2.27768 20.2112
rtibia 49.5639
rfoot -19.2232 28.6767
rtoes -6.63995
lfemur -8.55633 -4.38816 -10.1921
ltibia 79.026
lfoot -0.161285 6.04864
ltoes -13.5957
144
root -29.0385 17.5799 -12.2188 -1436.38 2.20333 -12.4458
lowerback 2.57948 -0.901528 13.6187
upperback 9.30663 -1.7954 4.1614
thorax 8.35742 -0.0614258 -3.18083
lowerneck -3.50174 10.6106 3.26494
upperneck -0.537706 14.3073 -12.7949
head 1.75143 7.0547 -4.28203
rclavicle 2.40529e-014 -3.71727e-014
rhumerus -40.3941 1.36592 -89.3594
rradius 67.9692
rwrist -9.8399
rhand -30.1527 21.889
rfingers 7.12502
rthumb -3.4649 -8.06256
lclavicle 2.40529e-014 -3.71727e-014
lhumerus -44.0926 -33.3471 106.548
lradius 85.9646
lwrist -7.71759
lhand -38.3419 -23.1225
lfingers 7.12502
lthumb -11.369 6.54934
rfemur -24.6351 -2.55032 20.4813
rtibia 50.2595
rfoot -19.5656 29.3465
rtoes -4.32873
lfemur -10.1733 -3.69528 -9.53111
ltibia 81.359
lfoot -0.925011 5.29306
ltoes -12.0326
145
root -29.0261 17.5063 -12.0377 -1436.78 2.44337 -12.7235
lowerback 3.10704 -0.710605 14.0309
upperback 9.39211 -1.4651 4.27141
thorax 8.21084 0.121039 -3.26429
lowerneck -3.74712 10.541 3.3481
upperneck -0.642209 14.2118 -13.0288
head 1.78173 7.00173 -4.37201
rclavicle 1.03368e-014 8.66701e-014
rhumerus -38.3067 1.96338 -89.8917
rradius 68.6171
rwrist -9.2204
rhand -30.0803 22.0681
rfingers 7.12502
rthumb -3.39502 -7.88462
lclavicle 1.03368e-014 8.66701e-014
lhumerus -44.9999 -32.1031 106.811
lradius 85.4549
lwrist -7.96729
lhand -37.631 -22.62
lfingers 7.12502
lthumb -10.6833 7.08838
rfemur -23.8619 -2.89423 20.7123
rtibia 50.9203
rfoot -20.4322 29.7607
rtoes -3.78432
lfemur -11.8177 -3.07243 -8.91657
ltibia 83.4939
lfoot -1.7972 4.89738
ltoes -10.5174
146
root -29.0058 17.4415 -11.855 -1437.08 2.76083 -12.9143
lowerback 3.5226 -0.549156 14.374
upperback 9.4534 -1.1863 4.37048
thorax 8.09578 0.274712 -3.32821
lowerneck -3.99777 10.4815 3.39694
upperneck -0.679363 14.1376 -13.6625
head 1.69772 6.94011 -4.11126
rclavicle -6.95746e-015 -4.01545e-014
rhumerus -36.2954 2.98071 -90.3952
rradius 69.503
rwrist -8.59732
rhand -30.0389 21.8175
rfingers 7.12502
rthumb -3.35498 -8.13581
lclavicle -6.95746e-015 -4.01545e-014
lhumerus -45.8634 -30.7906 106.944
lradius 85.0358
lwrist -8.1518
lhand -36.99 -22.4025
lfingers 7.12502
lthumb -10.065 7.33676
rfemur -23.1192 -3.23404 20.8192
rtibia 51.4807
rfoot -21.7164 29.8864
rtoes -4.70848
lfemur -13.6295 -2.5172 -8.4755
ltibia 85.427
lfoot -2.8112 4.81435
ltoes -9.65434
